<?xml version="1.0" standalone="no"?>
<!DOCTYPE svg PUBLIC "-//W3C//DTD SVG 20010904//EN"
 "http://www.w3.org/TR/2001/REC-SVG-20010904/DTD/svg10.dtd">
<svg version="1.0" xmlns="http://www.w3.org/2000/svg"
 width="700.000000pt" height="700.000000pt" viewBox="0 0 700.000000 700.000000"
 preserveAspectRatio="xMidYMid meet">
<metadata>
Created by potrace 1.11, written by Peter Selinger 2001-2013
</metadata>
<g transform="translate(0.000000,700.000000) scale(0.100000,-0.100000)"
fill="#000000" stroke="none">
<path d="M3377 6634 c-1 -1 -50 -4 -109 -8 -96 -5 -215 -19 -279 -31 -13 -3
-41 -7 -64 -11 -22 -3 -67 -12 -100 -20 -33 -8 -71 -17 -85 -20 -141 -29 -406
-126 -605 -224 -520 -254 -951 -644 -1262 -1140 -149 -238 -322 -645 -369
-870 -3 -14 -10 -43 -15 -65 -5 -22 -12 -51 -15 -65 -17 -89 -24 -130 -29
-170 -2 -25 -7 -56 -10 -69 -2 -13 -5 -42 -7 -65 -1 -22 -6 -44 -12 -48 -7 -5
-8 -8 -1 -8 7 0 9 -22 4 -62 -8 -83 -4 -431 5 -446 4 -7 2 -12 -6 -12 -8 0 -9
-3 -3 -8 11 -8 11 -7 19 -83 3 -31 6 -63 8 -70 2 -8 -3 -13 -10 -11 -8 1 -11
-2 -7 -8 3 -6 10 -8 14 -6 8 5 11 -17 14 -96 1 -20 5 -34 9 -31 5 2 9 -8 9
-24 2 -34 3 -44 12 -63 3 -8 8 -26 10 -40 2 -14 7 -33 12 -43 4 -10 2 -24 -6
-34 -10 -12 -10 -15 -1 -9 13 8 28 -22 37 -74 3 -16 10 -41 15 -55 6 -15 8
-31 4 -36 -3 -5 -1 -9 3 -9 5 0 14 -14 20 -30 7 -19 8 -28 1 -24 -5 4 -2 -5 7
-20 10 -14 13 -26 9 -26 -5 0 -3 -4 5 -9 7 -5 14 -23 16 -42 1 -18 7 -35 14
-37 6 -2 9 -8 5 -13 -3 -5 0 -9 5 -9 6 0 11 -5 11 -10 0 -6 9 -30 20 -52 11
-23 20 -48 20 -55 0 -7 4 -13 10 -13 5 0 9 -3 8 -7 -1 -5 6 -23 15 -41 10 -18
15 -38 11 -44 -4 -6 -3 -8 4 -4 9 5 29 -32 23 -43 -2 -2 1 -7 7 -10 22 -15 92
-150 86 -168 -4 -13 -3 -15 4 -4 7 9 12 10 16 2 4 -6 5 -11 2 -11 -3 0 6 -12
19 -26 14 -15 22 -30 19 -35 -3 -5 0 -9 5 -9 6 0 11 -5 11 -10 0 -7 -6 -7 -20
0 -16 8 -18 8 -14 -4 3 -8 14 -13 25 -11 11 2 26 -6 39 -23 11 -15 24 -32 28
-37 5 -6 8 -19 6 -29 -2 -12 2 -16 12 -12 8 3 14 1 14 -3 0 -5 20 -33 45 -62
24 -28 42 -56 39 -61 -3 -4 2 -8 10 -8 9 0 16 -4 16 -9 0 -5 14 -23 32 -40 25
-24 29 -34 20 -43 -7 -7 -12 -17 -12 -23 0 -5 5 -2 11 8 10 16 14 15 49 -19
21 -21 36 -43 32 -48 -10 -17 -11 -37 -1 -30 5 3 7 10 4 15 -10 16 12 10 32
-8 10 -10 13 -14 6 -9 -10 6 -12 4 -7 -8 3 -9 15 -16 25 -16 10 0 19 -7 19
-15 0 -9 -6 -12 -17 -9 -15 5 -16 4 -3 -5 9 -6 19 -6 24 -1 5 5 15 2 24 -7 14
-14 14 -17 -4 -31 -15 -11 -15 -13 -2 -9 9 3 19 3 21 -1 2 -4 2 -1 1 6 -4 15
6 15 28 -2 10 -7 15 -16 11 -20 -4 -4 2 -9 14 -12 15 -4 20 -11 16 -22 -5 -11
-2 -14 9 -9 10 3 24 -3 35 -15 10 -12 13 -18 6 -15 -6 4 -15 2 -20 -5 -10 -16
-14 -42 -5 -33 4 4 7 12 7 18 0 6 9 11 21 11 25 0 88 -50 74 -59 -13 -8 -13
-25 1 -25 5 0 7 5 4 10 -3 6 1 10 9 10 9 0 16 -5 16 -11 0 -5 5 -7 12 -3 7 4
8 3 4 -4 -4 -7 3 -14 18 -18 25 -6 77 -54 59 -54 -6 0 -18 10 -27 23 -16 22
-16 22 -6 0 14 -31 28 -37 47 -21 12 9 15 9 9 1 -4 -8 -1 -13 8 -13 21 0 20
-17 -1 -29 -10 -6 -14 -11 -9 -11 5 0 18 7 28 16 16 16 18 16 24 0 3 -9 13
-16 21 -16 17 0 12 -22 -7 -28 -7 -3 -10 0 -6 7 4 6 2 11 -4 11 -7 0 -10 -6
-7 -12 2 -7 12 -13 22 -13 10 0 20 -6 23 -13 2 -6 8 -10 13 -6 21 12 48 12 53
-2 3 -9 10 -12 16 -9 5 3 10 1 10 -4 0 -6 6 -11 14 -11 21 0 30 -20 17 -33 -6
-6 -11 -16 -11 -22 0 -5 10 1 21 15 12 14 22 20 25 14 9 -22 34 -50 31 -34 -2
8 -2 12 0 8 3 -5 11 -8 20 -8 8 0 42 -15 76 -32 34 -18 63 -34 65 -34 2 -1 4
-11 5 -23 1 -11 7 -23 14 -25 7 -3 10 -13 7 -23 -5 -17 -5 -17 6 -1 6 10 16
18 22 18 7 0 6 -5 -2 -15 -10 -12 -9 -16 4 -21 9 -3 13 -10 10 -15 -3 -5 2 -6
12 -2 14 5 13 8 -6 18 -14 7 -18 15 -12 19 6 3 14 1 17 -5 4 -5 13 -8 20 -5
23 9 25 -6 3 -25 -32 -29 -7 -22 27 7 17 13 22 22 13 18 -12 -4 -20 0 -24 11
-5 13 -9 14 -15 4 -6 -10 -11 -10 -23 0 -9 7 -13 18 -10 23 4 6 -3 5 -14 -1
-18 -9 -23 -8 -32 10 -7 11 -9 23 -6 27 3 3 6 0 6 -7 0 -7 4 -10 9 -6 5 3 12
1 16 -5 4 -6 11 -8 16 -5 5 4 12 -1 15 -10 4 -9 13 -14 20 -11 7 3 20 -2 28
-10 9 -8 18 -14 21 -13 3 1 16 -2 28 -6 12 -4 28 -9 36 -10 7 -2 18 -8 24 -14
6 -6 21 -11 32 -11 12 0 25 -3 29 -7 3 -4 14 -8 24 -9 9 -2 18 -7 20 -13 2 -5
11 -8 20 -5 14 5 13 2 -3 -10 -18 -15 -20 -15 -30 3 -7 13 -19 18 -40 15 -21
-2 -26 -1 -15 6 12 7 10 9 -7 7 -12 0 -19 -5 -17 -9 3 -4 1 -8 -5 -8 -5 0 -13
5 -16 10 -3 6 -1 10 5 10 6 0 8 5 4 11 -4 8 -9 7 -15 -2 -8 -13 -13 -5 -10 14
2 12 -6 8 -20 -10 -8 -9 -9 -14 -3 -10 7 4 18 0 25 -9 11 -13 9 -14 -13 -9
-15 4 -29 2 -32 -4 -4 -7 -1 -8 9 -5 8 4 27 -2 41 -11 15 -9 23 -12 20 -6 -8
12 1 14 48 13 36 -1 40 -6 26 -32 -6 -12 -9 -24 -6 -27 3 -3 10 5 15 18 8 21
10 22 16 7 4 -10 12 -18 17 -18 6 0 5 6 -2 15 -8 10 -9 15 -2 15 12 0 38 -40
34 -53 -4 -12 16 -8 21 6 3 9 7 9 19 -1 11 -9 18 -10 23 -2 3 5 17 8 31 6 24
-5 33 7 14 19 -5 3 -10 1 -10 -5 0 -6 -4 -9 -10 -5 -5 3 -7 12 -4 20 4 8 11
12 18 8 6 -4 16 -8 21 -8 6 0 10 -10 10 -22 0 -12 8 -30 17 -39 16 -16 16 -18
1 -29 -13 -10 -13 -14 -3 -20 8 -5 11 -4 6 3 -6 9 22 25 49 26 6 1 11 6 12 11
1 6 -5 9 -13 9 -10 -1 -13 4 -8 19 5 16 3 19 -10 14 -9 -4 -22 -10 -30 -13 -9
-3 -14 0 -12 10 3 19 16 34 16 18 0 -7 5 -12 11 -12 5 0 7 4 4 10 -3 5 10 3
28 -5 19 -8 37 -11 40 -8 4 3 12 1 19 -4 7 -6 21 -9 30 -8 10 2 20 -1 24 -6 3
-5 10 -6 16 -3 7 4 8 2 4 -4 -4 -7 -2 -12 3 -12 6 0 11 6 11 13 0 8 3 8 8 1 4
-6 20 -10 35 -9 15 1 30 -2 33 -6 2 -4 13 -6 24 -4 11 2 22 0 25 -5 3 -5 12
-7 19 -4 8 3 17 1 21 -5 3 -6 11 -11 16 -11 6 0 7 5 3 12 -5 7 -3 8 7 3 7 -5
31 -10 54 -11 22 -1 40 -3 40 -4 0 -1 29 -3 65 -5 83 -4 80 -3 80 -16 0 -5 -4
-7 -10 -4 -9 6 -14 -8 -11 -29 1 -4 -4 -14 -10 -22 -16 -20 -1 -17 19 3 12 11
13 18 5 20 -8 3 -5 11 7 23 14 14 32 18 69 17 44 -1 50 -3 47 -21 -1 -11 -8
-22 -15 -24 -10 -3 -10 0 -3 15 8 15 8 20 -2 20 -7 0 -13 -7 -12 -16 1 -9 -6
-16 -14 -16 -8 0 -15 7 -14 15 1 15 -35 26 -37 12 0 -4 -2 -20 -4 -37 -3 -23
-2 -26 6 -15 8 11 12 12 16 3 3 -10 9 -10 26 1 25 14 61 14 80 -2 10 -8 16 -6
25 9 7 11 17 17 22 14 14 -9 12 -25 -2 -22 -7 1 -13 -8 -14 -21 -1 -19 -1 -19
3 -2 2 11 8 18 13 15 5 -3 18 3 29 14 11 11 23 16 28 13 4 -4 0 3 -10 15 -10
11 -14 24 -9 27 5 3 15 -5 22 -19 14 -25 3 -46 -30 -57 -10 -3 -8 -6 7 -10 12
-3 21 -3 20 1 -1 3 6 17 16 31 15 22 22 21 18 -2 -1 -8 15 -12 32 -9 5 1 6 -7
2 -18 -3 -11 -1 -22 4 -26 7 -4 8 1 4 11 -5 12 -3 15 6 9 10 -6 11 -3 1 14 -6
12 -14 20 -18 18 -4 -2 -16 6 -27 18 l-21 22 24 11 c19 9 21 8 13 -2 -8 -10
-7 -17 4 -26 8 -7 15 -9 15 -4 1 5 8 -2 16 -16 11 -18 14 -19 9 -5 -6 18 -5
18 15 -2 28 -30 35 -29 13 2 -10 13 -24 25 -30 26 -7 1 -17 2 -22 3 -15 2 -26
16 -13 16 7 0 12 8 12 17 0 18 15 8 15 -10 0 -7 11 -11 23 -10 13 2 21 -1 18
-5 -7 -12 12 -38 21 -29 4 5 2 12 -6 16 -10 6 -9 10 4 15 9 3 18 6 19 6 7 0 2
-37 -7 -48 -6 -8 -6 -12 1 -12 5 0 12 7 16 15 4 12 10 13 30 3 19 -8 29 -8 40
1 10 8 16 9 21 1 3 -5 1 -10 -4 -10 -6 0 -11 -5 -11 -11 0 -8 6 -7 17 2 15 13
16 12 11 -9 -4 -12 -2 -20 3 -16 15 9 10 30 -11 49 -11 10 -20 23 -20 28 0 6
11 0 25 -13 14 -13 25 -19 25 -14 0 5 4 3 9 -5 11 -17 49 -22 58 -8 3 6 1 7
-5 3 -17 -10 -15 9 3 24 8 7 12 17 8 23 -3 6 -1 7 6 3 6 -4 9 -16 6 -27 -4
-10 -2 -19 3 -19 6 0 9 11 7 25 -1 16 2 24 9 22 6 -2 10 -19 9 -38 -1 -22 1
-29 7 -20 4 8 5 21 2 30 -5 13 -3 14 9 4 10 -8 19 -9 29 -1 12 8 12 9 -2 4
-10 -3 -18 -1 -18 4 0 13 29 40 43 40 7 0 3 -8 -8 -17 -16 -12 -16 -14 -3 -10
11 4 23 -2 33 -16 8 -12 15 -17 15 -13 0 5 -7 18 -17 28 -19 21 -6 24 19 4 10
-7 15 -16 11 -20 -4 -4 0 -4 9 -1 13 5 15 2 11 -14 -3 -12 -3 -21 0 -21 2 0 7
9 10 20 4 15 -2 24 -25 36 -16 8 -28 18 -25 21 3 2 15 -1 27 -7 31 -17 58 -20
83 -10 17 7 18 9 5 9 -21 1 -23 12 -6 29 17 17 33 15 19 -2 -9 -11 -8 -15 4
-20 9 -3 13 -11 9 -17 -4 -7 -3 -9 4 -5 5 3 12 3 15 -1 2 -5 2 -3 1 4 -2 6 2
14 9 17 7 3 3 4 -7 3 -10 -1 -21 4 -24 12 -3 9 0 11 7 7 7 -4 10 -2 9 5 -2 6
3 14 10 16 8 3 10 -1 6 -11 -3 -9 -2 -16 3 -16 19 0 22 13 7 34 -8 13 -11 27
-7 31 5 5 1 4 -8 -3 -9 -6 -19 -8 -23 -4 -4 4 -6 0 -4 -8 2 -9 -5 -15 -19 -16
-17 -1 -21 2 -14 14 9 16 27 22 68 24 13 0 20 4 18 9 -3 4 6 6 20 3 15 -2 25
0 25 7 0 6 7 9 15 5 8 -3 15 -1 15 5 0 6 6 9 14 6 7 -3 18 -1 22 3 5 5 21 11
34 14 14 2 26 5 28 7 1 1 5 2 10 4 8 2 25 9 57 21 11 4 25 8 31 9 6 0 18 6 27
13 9 7 29 14 46 14 17 1 28 4 26 8 -3 5 2 11 11 14 21 8 24 8 24 -5 0 -5 -5
-7 -12 -3 -7 4 -8 3 -4 -4 9 -15 -23 -31 -56 -27 -15 2 -26 0 -25 -3 1 -4 -2
-8 -7 -9 -5 -1 -13 -7 -17 -15 -7 -10 -9 -10 -9 2 -1 9 -6 5 -15 -10 -8 -14
-14 -19 -15 -13 0 8 -9 11 -22 9 -15 -2 -22 -9 -20 -20 3 -17 -18 -18 -30 -1
-5 6 -8 5 -8 -3 0 -8 -9 -11 -25 -8 -17 3 -23 1 -19 -6 4 -7 2 -8 -5 -4 -7 4
-10 2 -9 -5 2 -6 -4 -14 -12 -16 -12 -4 -12 -3 -1 5 9 7 10 12 2 16 -6 4 -11
2 -11 -4 0 -7 -7 -9 -16 -6 -10 4 -13 2 -8 -6 4 -7 3 -8 -4 -4 -7 4 -12 2 -12
-4 0 -6 -5 -8 -10 -5 -6 3 -13 -1 -16 -10 -6 -14 -9 -14 -16 -3 -8 10 -9 10
-5 -2 2 -8 11 -14 21 -12 20 4 21 -5 1 -25 -19 -18 -11 -33 18 -32 21 1 21 1
-2 8 -22 6 -22 7 -7 20 9 8 15 20 12 27 -3 8 3 18 14 24 25 14 30 13 24 -5 -4
-8 -11 -12 -17 -8 -6 3 -7 1 -3 -6 4 -6 2 -18 -4 -26 -9 -11 -9 -15 -1 -15 6
0 11 5 11 11 0 5 4 7 10 4 6 -4 7 1 3 12 -6 16 -5 16 10 5 8 -8 13 -21 10 -30
-4 -14 -3 -14 5 -3 6 8 7 21 4 30 -5 14 -3 14 11 2 15 -12 18 -10 28 15 7 16
11 34 10 39 -1 6 3 5 10 -2 9 -9 9 -16 1 -25 -8 -11 -7 -14 8 -15 27 -2 37 17
16 33 -10 7 -13 15 -7 18 5 4 16 -3 24 -14 7 -11 17 -17 22 -12 4 4 5 -1 2
-10 -4 -10 -2 -18 3 -18 15 0 12 30 -3 36 -18 6 -19 41 -1 41 8 0 13 -6 10
-13 -6 -16 19 -38 34 -29 5 3 10 1 10 -4 0 -6 5 -11 12 -11 6 0 3 9 -7 20 -19
21 -8 29 12 9 8 -8 16 -8 30 0 16 10 16 11 -6 8 -13 -1 -25 3 -28 8 -4 13 36
14 55 2 20 -13 33 2 21 25 -9 17 -8 19 8 14 23 -7 59 16 49 32 -4 6 -13 9 -21
6 -12 -5 -12 -1 -2 20 7 14 16 24 22 23 5 -2 17 5 26 16 14 18 16 18 22 4 3
-9 2 -19 -3 -22 -6 -4 -10 0 -10 7 -1 7 -7 2 -15 -12 -8 -14 -14 -19 -15 -11
0 8 -3 12 -6 9 -3 -3 0 -15 7 -27 12 -19 15 -19 31 -4 10 9 18 11 18 5 0 -6
-5 -14 -11 -18 -6 -3 3 -14 22 -26 23 -14 35 -16 43 -8 8 8 6 9 -8 4 -14 -5
-17 -4 -12 5 4 6 4 11 -1 10 -23 -4 -31 3 -29 26 0 14 6 23 11 21 6 -1 9 -11
7 -21 -3 -15 -1 -15 18 3 12 11 28 18 35 15 8 -2 19 6 25 19 10 21 10 21 -3 5
-19 -23 -30 -22 -18 2 6 10 7 22 3 26 -4 5 1 5 10 2 13 -5 15 -2 11 11 -6 15
-5 15 11 3 13 -11 20 -11 28 -3 17 17 33 15 18 -3 -6 -8 -10 -20 -7 -27 4 -9
6 -8 6 3 2 27 28 44 46 29 10 -9 15 -9 15 -1 0 6 -4 11 -10 11 -5 0 -10 5 -10
11 0 6 7 8 15 5 37 -15 48 -16 26 -3 -16 9 -20 16 -11 19 10 3 9 10 -4 30 -17
25 -16 27 1 35 10 5 24 9 32 9 19 -1 27 -26 8 -26 -9 0 -17 5 -19 12 -3 8 -7
6 -11 -4 -4 -11 3 -22 19 -32 13 -9 24 -12 24 -6 0 5 -6 10 -12 10 -9 0 -8 3
2 10 20 13 36 -16 20 -36 -9 -10 -9 -14 -1 -14 6 0 11 4 11 10 0 5 8 7 18 4
14 -5 14 -4 3 4 -13 9 -11 14 9 30 13 11 31 18 40 15 8 -3 5 4 -8 14 -24 20
-22 26 18 48 12 7 11 4 -2 -11 -15 -18 -15 -20 10 -38 27 -20 27 -20 10 0 -24
28 -23 41 2 19 11 -10 20 -13 20 -8 0 6 -7 13 -15 17 -8 3 -12 12 -9 19 3 9
-3 16 -15 20 -13 3 -19 1 -14 -5 3 -7 1 -8 -6 -4 -18 11 -3 26 24 24 25 -2 40
-22 29 -39 -3 -5 6 -4 20 2 20 10 23 15 15 26 -7 7 -7 13 -2 13 12 0 42 -32
40 -42 -1 -3 1 -9 5 -13 9 -9 4 17 -6 33 -5 9 -2 20 9 30 13 13 19 14 22 5 3
-7 9 -13 15 -13 7 0 7 4 0 13 -6 7 -9 25 -8 40 2 15 -1 30 -6 33 -5 4 7 18 28
31 36 25 73 54 99 80 7 7 15 9 19 6 3 -3 8 2 12 11 3 9 15 16 26 16 12 0 17
-4 12 -12 -4 -6 -3 -8 3 -5 7 4 10 -3 9 -18 0 -14 -3 -25 -6 -26 -35 -6 -52
-3 -59 9 -6 11 -10 11 -15 3 -4 -7 -2 -18 4 -26 9 -11 7 -14 -9 -12 -15 1 -20
6 -16 17 4 8 -4 4 -17 -10 -13 -13 -24 -28 -24 -32 -1 -5 -2 -11 -3 -15 -1 -5
-6 -1 -11 7 -7 11 -10 11 -10 2 0 -7 -5 -10 -12 -6 -7 5 -8 3 -3 -6 5 -9 4
-11 -3 -6 -19 11 -14 2 9 -17 20 -18 21 -18 14 5 -6 19 -5 21 6 10 20 -19 31
-15 76 29 24 22 46 38 51 35 5 -3 21 4 38 16 16 11 21 17 11 14 -12 -4 -17 -2
-14 6 2 7 11 12 20 10 8 -1 19 3 23 9 4 7 2 10 -7 7 -18 -7 -51 10 -44 22 4 6
-2 7 -12 3 -15 -6 -16 -5 -3 9 8 9 19 13 24 8 10 -10 36 -2 36 12 0 6 -6 5
-15 -2 -9 -7 -15 -8 -15 -2 0 5 7 13 16 16 8 3 12 11 8 17 -4 8 -3 9 5 5 6 -4
8 -12 5 -18 -4 -7 -2 -8 5 -4 6 4 9 12 5 17 -6 11 79 99 96 99 6 0 9 4 5 9 -3
5 3 12 14 16 10 3 21 15 24 26 5 18 9 19 27 9 17 -9 25 -9 34 0 8 8 7 10 -5 5
-33 -12 -29 15 5 50 37 37 58 48 35 17 -13 -15 -12 -16 4 -3 9 7 17 9 17 3 0
-17 -27 -33 -46 -26 -16 5 -17 4 -4 -6 13 -10 12 -11 -3 -6 -11 3 -16 2 -12
-5 4 -5 16 -7 27 -3 20 6 20 5 -3 -27 -12 -19 -27 -37 -32 -40 -5 -4 -6 -12
-3 -18 4 -6 3 -11 -3 -11 -19 0 -24 23 -8 35 14 10 13 12 -5 24 -11 7 -17 8
-14 2 4 -5 2 -13 -4 -16 -8 -5 -6 -15 5 -31 8 -13 11 -24 6 -24 -13 0 -32 26
-24 33 3 4 2 7 -4 7 -15 0 -23 -24 -13 -41 10 -14 -5 -39 -23 -39 -8 0 -8 3 0
11 13 13 5 42 -9 33 -6 -4 -5 -10 3 -16 11 -7 10 -8 -4 -4 -10 3 -16 2 -12 -3
7 -12 -5 -42 -15 -36 -13 8 -40 -6 -33 -18 3 -6 1 -7 -5 -3 -8 4 -10 2 -6 -7
3 -8 1 -18 -5 -21 -6 -4 -7 -14 -4 -23 4 -11 3 -14 -5 -9 -7 4 -20 2 -29 -4
-16 -10 -15 -10 4 -5 15 4 25 0 32 -12 6 -11 11 -13 11 -5 0 8 5 10 13 6 8 -5
7 -2 -2 10 -10 12 -11 20 -3 28 6 6 8 18 5 27 -3 10 4 6 18 -9 15 -17 20 -19
16 -7 -8 20 2 49 14 42 4 -3 6 -13 3 -23 -5 -14 -4 -15 5 -2 6 9 7 18 1 24 -6
6 -10 15 -10 20 0 6 5 5 11 -1 9 -9 16 -6 30 10 11 13 18 17 19 9 0 -8 5 -10
12 -6 8 5 9 1 4 -12 -6 -16 -5 -17 6 -6 11 12 9 17 -9 29 -13 9 -23 19 -23 24
0 5 12 1 27 -8 19 -13 25 -14 18 -4 -6 11 -4 13 8 8 11 -4 15 -1 12 13 -2 11
4 24 13 30 9 5 14 10 9 10 -4 0 0 11 9 26 12 17 20 22 27 15 6 -6 16 -11 21
-11 6 0 5 4 -3 9 -12 8 -9 15 17 40 l33 30 -23 20 c-12 12 -26 21 -31 21 -6 0
3 12 19 27 16 15 29 29 29 32 0 3 8 15 17 26 10 11 31 39 48 63 29 41 55 57
44 27 -4 -8 -10 -13 -14 -10 -16 10 -19 -12 -4 -39 18 -36 18 -39 -5 -24 -11
7 -17 18 -14 27 4 10 0 9 -10 -4 -16 -20 -13 -40 4 -29 5 3 17 0 25 -7 21 -18
29 -3 14 26 -11 21 -11 27 0 38 10 10 12 9 7 -5 -8 -22 11 -34 26 -19 9 9 7
11 -8 6 -18 -6 -18 -5 -3 7 9 7 25 19 35 26 16 11 16 11 -4 2 -28 -13 -43 -13
-43 0 0 6 8 10 18 10 25 0 42 19 35 39 -4 9 -3 13 2 9 4 -4 14 0 21 10 9 13
10 20 1 31 -10 12 -9 13 8 7 11 -4 16 -4 12 0 -4 4 2 13 13 21 11 8 20 20 20
28 0 8 10 21 22 29 12 9 18 19 14 23 -5 5 -11 2 -13 -5 -3 -6 -8 -10 -12 -7
-5 2 -17 -2 -27 -10 -15 -12 -15 -14 -2 -9 13 4 15 1 11 -15 -4 -16 -9 -19
-18 -11 -15 12 -30 -3 -20 -19 3 -5 -4 -13 -16 -16 -19 -6 -19 -8 -3 -20 16
-12 16 -13 -4 -24 -13 -7 -28 -9 -35 -5 -6 4 -9 4 -5 -1 4 -4 2 -15 -5 -24
-10 -14 -10 -14 5 -3 9 8 19 9 22 4 9 -15 -23 -23 -42 -12 -10 5 -12 10 -6 10
7 0 14 9 17 21 4 14 10 18 18 13 9 -5 10 -2 6 9 -4 11 2 22 16 32 12 8 18 15
13 15 -4 0 6 17 23 39 17 21 28 41 24 44 -3 4 2 9 11 13 9 3 16 12 16 20 0 8
4 14 10 14 5 0 9 3 9 8 -3 19 2 32 12 32 8 0 7 -6 -2 -18 -13 -15 -12 -16 4
-3 10 8 17 9 17 3 0 -6 -8 -17 -18 -24 -27 -19 -34 -35 -14 -33 20 1 62 24 46
25 -5 0 -15 -5 -22 -12 -8 -8 -12 -8 -12 -1 0 6 7 16 15 23 19 16 19 25 -1 44
-10 11 -11 16 -3 16 7 0 10 3 6 6 -3 4 5 22 20 40 14 19 22 34 19 34 -4 0 -2
9 4 20 6 11 18 20 26 20 8 0 12 -5 9 -10 -4 -6 -11 -8 -16 -5 -5 4 -9 1 -9 -4
0 -15 11 -13 33 3 18 14 17 14 -2 21 -23 7 -27 20 -11 30 6 3 13 -1 16 -9 3
-9 12 -16 20 -16 10 0 8 6 -6 20 -23 23 -25 36 -8 46 6 4 8 3 5 -3 -4 -5 3
-20 14 -31 23 -26 26 -27 26 -7 0 8 -3 13 -6 11 -9 -5 -26 16 -29 36 -2 10 3
28 10 40 7 13 12 27 13 32 0 5 10 12 22 17 17 6 23 4 28 -11 3 -10 12 -21 20
-24 10 -4 8 4 -6 23 -12 17 -28 27 -35 24 -10 -4 -12 0 -8 11 3 9 9 14 14 11
4 -2 5 6 3 19 -3 12 2 29 9 37 8 8 12 21 10 29 -4 13 -3 13 11 2 16 -13 13
-47 -3 -37 -14 8 -22 -13 -12 -31 8 -14 10 -14 21 0 8 9 10 16 7 16 -4 0 -2 8
3 18 6 12 5 23 -5 36 -10 15 -11 23 -1 40 6 11 10 24 9 29 -2 7 13 11 37 8 7
-2 10 3 6 9 -4 6 -13 9 -21 6 -21 -8 -17 3 9 25 12 10 17 18 10 19 -6 0 -14
-6 -17 -12 -3 -7 -4 -4 -3 7 2 11 9 19 15 18 15 -4 16 14 1 19 -6 2 -1 16 13
33 12 16 17 26 10 21 -6 -4 -12 -2 -12 3 0 6 6 11 14 11 8 0 18 5 22 12 5 8 2
9 -10 5 -13 -5 -17 -3 -13 7 3 8 9 31 13 50 3 20 10 36 15 36 5 0 7 -6 5 -12
-1 -7 -1 -10 1 -5 3 4 9 5 14 2 5 -4 6 1 3 9 -3 9 -10 16 -15 16 -5 0 -9 7 -9
17 0 15 2 15 19 -1 13 -12 21 -14 26 -6 3 6 1 9 -6 8 -18 -4 -35 52 -18 62 7
5 16 7 20 4 4 -2 11 0 14 6 4 6 3 10 -2 9 -19 -3 -33 2 -33 12 0 6 7 8 16 5
13 -5 14 -3 6 7 -11 13 -10 39 3 97 5 19 9 42 9 50 1 8 12 20 26 28 l25 14
-30 -7 c-16 -3 -25 -2 -20 2 10 8 14 34 16 100 1 22 5 30 13 26 6 -4 5 1 -3
10 -12 15 -11 17 5 18 11 0 14 3 7 6 -17 6 -17 55 0 72 9 11 9 13 0 7 -7 -4
-13 -2 -13 3 0 6 5 11 10 11 6 0 10 5 10 11 0 5 -4 8 -8 5 -10 -6 -9 30 1 40
12 12 8 26 -5 18 -6 -4 -8 -3 -5 3 10 16 16 93 7 93 -4 0 -6 9 -3 20 3 11 10
17 15 14 5 -4 2 8 -6 25 -10 19 -12 31 -6 31 6 0 8 5 5 10 -4 6 -8 31 -9 56
-2 37 0 44 13 39 12 -4 12 -2 -1 9 -18 13 -26 32 -10 22 5 -3 9 1 9 9 0 8 -5
11 -10 8 -6 -4 -8 5 -5 21 3 15 1 26 -6 26 -6 0 -4 5 4 10 8 5 10 10 4 10 -6
0 -10 19 -9 45 0 25 -2 45 -6 45 -3 0 -5 10 -4 23 1 12 -2 33 -6 47 -5 14 -10
44 -12 67 -2 24 -6 46 -10 50 -15 14 -6 25 10 12 15 -13 15 -12 -1 12 -16 25
-25 59 -29 102 -1 9 -4 17 -8 17 -4 0 -7 10 -7 23 -2 30 -6 50 -15 65 -5 6 -5
17 -2 22 3 6 1 10 -4 10 -6 0 -10 3 -9 8 2 6 -8 40 -37 132 -1 3 -5 13 -9 22
-4 9 -9 22 -10 30 -2 7 -8 26 -14 41 -7 15 -15 39 -18 53 -3 13 -10 27 -15 30
-5 3 -9 12 -9 19 0 8 -18 53 -40 100 -22 48 -37 91 -34 97 4 6 3 9 -2 5 -12
-7 -86 131 -78 145 4 7 2 8 -4 4 -8 -4 -16 3 -22 19 -5 14 -19 38 -31 54 -12
16 -18 34 -14 40 3 6 2 10 -4 9 -14 -4 -102 132 -94 145 3 5 2 7 -4 4 -13 -8
-56 50 -47 65 4 6 3 8 -3 5 -6 -4 -21 7 -34 24 -13 17 -36 44 -51 62 -14 17
-24 36 -21 42 4 5 3 7 -2 3 -4 -4 -27 16 -52 45 -44 54 -229 237 -293 292
-131 113 -468 351 -479 339 -2 -2 -11 2 -20 10 -18 16 -184 101 -276 141 -261
115 -567 201 -820 231 -27 3 -61 7 -75 10 -65 10 -443 26 -453 18z m2988
-4234 c3 -5 1 -10 -4 -10 -6 0 -11 5 -11 10 0 6 2 10 4 10 3 0 8 -4 11 -10z
m-280 -540 c3 -5 1 -10 -4 -10 -6 0 -11 5 -11 10 0 6 2 10 4 10 3 0 8 -4 11
-10z m-244 -340 c18 -14 20 -19 8 -20 -9 0 -22 -11 -29 -25 -7 -13 -17 -22
-22 -19 -5 3 -2 15 8 25 16 18 16 20 -1 39 -15 17 -16 20 -3 20 9 0 26 -9 39
-20z m-231 -240 c0 -5 -4 -10 -10 -10 -5 0 -10 5 -10 10 0 6 5 10 10 10 6 0
10 -4 10 -10z m-200 -181 c0 -9 -41 -39 -53 -39 -5 0 -4 6 2 13 6 8 8 17 4 21
-4 4 1 4 11 0 12 -5 17 -4 13 3 -3 5 0 10 8 10 8 0 15 -4 15 -8z m-148 -69
c-16 -10 -29 -25 -29 -34 0 -12 4 -13 14 -5 7 6 11 15 8 19 -3 4 2 10 10 14 8
3 17 2 19 -3 8 -12 -39 -49 -60 -48 -14 2 -18 -4 -16 -18 3 -20 2 -20 -13 -1
-8 11 -15 25 -15 30 0 6 -5 4 -11 -4 -9 -13 -10 -13 -6 0 2 8 8 15 13 16 18 2
53 19 53 27 1 4 4 6 7 5 3 -2 10 5 15 14 5 10 16 15 25 11 12 -4 8 -10 -14
-23z m-3412 -71 c0 -11 -27 -12 -34 0 -3 4 -3 11 0 14 8 8 34 -3 34 -14z
m3269 -35 c-6 -8 -15 -12 -19 -9 -4 3 -11 -2 -14 -11 -3 -8 -10 -12 -16 -9 -6
4 -7 -1 -3 -11 4 -11 8 -13 11 -6 2 7 9 9 14 6 7 -4 8 -2 4 4 -4 7 -3 12 3 12
21 0 20 -19 -3 -33 -22 -15 -24 -14 -40 19 -9 20 -12 33 -7 30 5 -3 14 1 21 9
7 8 16 12 21 9 5 -3 9 -1 9 5 0 6 7 8 15 5 12 -5 13 -10 4 -20z m-146 -110
c-22 -17 -30 -19 -36 -9 -9 17 -40 13 -45 -6 -2 -8 0 -10 5 -4 4 6 15 11 23
13 11 1 9 -2 -4 -13 -12 -9 -24 -11 -30 -6 -15 13 -60 -25 -53 -43 9 -23 -19
-41 -38 -26 -13 10 -19 10 -33 -4 -23 -20 -33 -21 -26 -1 3 8 9 14 12 13 4 -1
18 4 31 11 18 10 22 10 16 0 -6 -8 -4 -10 5 -4 9 6 11 4 5 -6 -5 -8 -4 -11 0
-6 5 4 9 16 10 27 1 16 -2 17 -18 9 -21 -12 -33 -6 -23 10 4 6 14 7 23 4 11
-4 14 -3 9 5 -5 8 -1 10 10 5 13 -5 15 -3 9 8 -4 8 -5 11 -1 7 4 -4 27 4 49
16 23 13 48 21 55 19 7 -3 11 1 10 9 -2 8 4 12 16 10 12 -2 16 1 10 10 -4 7 2
4 15 -6 l22 -20 -28 -22z m-298 -134 c-9 -14 8 -13 23 2 8 8 12 8 12 1 0 -14
-28 -25 -42 -17 -5 4 -23 -4 -40 -16 -16 -12 -32 -19 -36 -15 -11 10 15 40 32
37 9 -2 24 2 34 7 22 13 25 13 17 1z m-95 -40 c0 -4 -7 -13 -15 -20 -8 -7 -12
-16 -9 -21 6 -10 -9 -12 -19 -3 -9 10 14 51 29 51 8 0 14 -4 14 -7z m74 -6 c4
-10 1 -14 -6 -12 -15 5 -23 28 -10 28 5 0 13 -7 16 -16z m-2050 -17 c3 4 6 -2
6 -12 0 -14 -3 -15 -15 -5 -9 7 -15 8 -15 2 0 -18 29 -21 39 -4 14 23 14 6 0
-19 -8 -16 -13 -18 -24 -9 -8 7 -18 9 -23 6 -6 -3 -17 5 -26 18 -18 28 -5 38
30 25 12 -4 25 -5 28 -2z m1822 -52 c-6 -13 -14 -21 -18 -19 -5 3 -3 15 3 27
9 19 8 18 -10 -3 -11 -14 -23 -22 -26 -18 -4 4 6 18 21 32 32 27 48 17 30 -19z
m54 5 c0 -5 -5 -10 -11 -10 -5 0 -7 5 -4 10 3 6 8 10 11 10 2 0 4 -4 4 -10z
m-290 -12 c0 -4 -4 -8 -9 -8 -6 0 -12 4 -15 8 -3 5 1 9 9 9 8 0 15 -4 15 -9z
m-1454 -18 c0 -22 -11 -26 -22 -9 -5 9 5 22 21 29 1 0 1 -9 1 -20z m1380 13
c-3 -4 4 -13 16 -21 13 -7 15 -11 6 -8 -10 3 -20 2 -22 -3 -3 -4 0 -8 7 -9 29
-2 48 -9 60 -21 17 -18 -37 -7 -69 14 -13 8 -24 11 -24 5 0 -5 -5 -10 -11 -10
-7 0 -9 9 -6 21 4 15 -3 11 -29 -16 -24 -26 -38 -34 -47 -28 -18 14 -59 14
-54 0 2 -7 -6 -23 -19 -37 -21 -21 -24 -22 -24 -6 0 11 -5 16 -14 13 -7 -3
-21 4 -30 14 -18 21 -41 16 -32 -7 9 -23 -19 -27 -51 -9 -15 9 -20 14 -11 11
13 -4 15 -1 11 12 -6 15 -4 15 10 4 17 -14 42 -7 32 9 -7 10 -33 8 -52 -4 -8
-5 -13 -3 -13 4 0 10 -3 10 -12 1 -16 -16 -28 -15 -28 3 0 11 8 14 30 10 17
-3 30 -2 30 2 0 5 14 8 30 8 17 0 28 -5 26 -11 -5 -12 30 -12 41 1 5 4 3 5 -4
1 -6 -3 -14 -2 -18 4 -9 14 18 12 34 -2 11 -11 13 -10 8 3 -4 12 1 15 21 14
15 -1 33 3 41 9 12 9 13 8 8 -6 -3 -10 -1 -20 5 -24 7 -5 8 -2 3 6 -5 9 -4 11
3 6 7 -4 20 -2 29 4 15 9 14 10 -6 4 -16 -4 -21 -3 -17 5 9 13 46 15 46 1 0
-5 -8 -14 -17 -19 -17 -10 -17 -10 -1 -11 11 0 20 10 24 25 3 14 12 25 19 25
7 0 21 3 31 7 13 5 16 3 12 -9 -4 -9 0 -15 8 -15 8 0 13 6 10 13 -4 12 2 24
12 24 3 0 2 -3 -2 -7z m53 -8 c16 -8 32 -11 37 -7 5 4 3 -1 -4 -10 -12 -15
-51 -22 -50 -8 2 19 -3 30 -12 25 -5 -3 -10 -1 -10 4 0 14 6 14 39 -4z m91 11
c0 -2 -8 -10 -17 -17 -16 -13 -17 -12 -4 4 13 16 21 21 21 13z m-640 -61 c0
-2 -9 -9 -20 -15 -12 -6 -20 -7 -20 -1 0 5 8 12 18 14 9 3 18 5 20 6 1 0 2 -1
2 -4z m-120 -17 c0 -6 -3 -8 -7 -5 -3 4 -12 2 -20 -5 -7 -6 -16 -8 -20 -4 -3
3 -1 6 6 6 7 0 10 4 7 8 -2 4 4 9 15 9 10 1 19 -3 19 -9z m46 5 c-3 -3 -1 -12
5 -20 9 -10 8 -13 0 -13 -7 0 -9 -5 -5 -12 5 -9 3 -9 -9 1 -9 7 -14 17 -11 22
11 18 -8 9 -24 -12 -12 -13 -23 -18 -35 -13 -17 6 -17 7 0 19 12 9 20 10 24 3
4 -6 9 -3 13 9 3 10 16 19 27 20 12 1 19 -1 15 -4z m149 -3 c-3 -5 -11 -10
-16 -10 -6 0 -7 5 -4 10 3 6 11 10 16 10 6 0 7 -4 4 -10z m-311 -49 c-7 -7
-34 21 -28 31 3 5 12 1 19 -9 7 -10 12 -20 9 -22z"/>
<path d="M5200 990 c-8 -5 -12 -12 -9 -15 4 -3 12 1 19 10 14 17 11 19 -10 5z"/>
<path d="M4944 833 c2 -10 6 -17 10 -16 15 3 16 11 2 22 -12 10 -14 9 -12 -6z"/>
<path d="M2555 600 c3 -5 8 -10 11 -10 2 0 4 5 4 10 0 6 -5 10 -11 10 -5 0 -7
-4 -4 -10z"/>
<path d="M3910 495 c8 -9 8 -15 0 -20 -5 -3 -10 -2 -10 4 0 11 -30 8 -33 -4
-1 -5 13 -9 30 -10 18 -1 31 1 28 3 -3 3 0 11 6 19 6 7 10 13 8 14 -37 7 -40
7 -29 -6z"/>
<path d="M6526 4102 c-3 -5 1 -9 9 -9 8 0 12 4 9 9 -3 4 -7 8 -9 8 -2 0 -6 -4
-9 -8z"/>
<path d="M6533 4041 c0 -11 5 -18 9 -15 4 3 5 11 1 19 -7 21 -12 19 -10 -4z"/>
<path d="M6575 3940 c-3 -5 -1 -10 4 -10 6 0 11 5 11 10 0 6 -2 10 -4 10 -3 0
-8 -4 -11 -10z"/>
<path d="M6593 3565 c0 -8 4 -12 9 -9 5 3 6 10 3 15 -9 13 -12 11 -12 -6z"/>
<path d="M6575 3521 c-3 -5 -2 -12 3 -15 5 -3 9 1 9 9 0 17 -3 19 -12 6z"/>
<path d="M6577 3475 c-4 -8 -3 -16 1 -19 4 -3 9 4 9 15 2 23 -3 25 -10 4z"/>
<path d="M6615 3389 c-4 -6 -5 -12 -2 -15 2 -3 7 2 10 11 7 17 1 20 -8 4z"/>
<path d="M6580 3366 c0 -2 8 -10 18 -17 15 -13 16 -12 3 4 -13 16 -21 21 -21
13z"/>
<path d="M6566 3323 c-6 -14 -5 -15 5 -6 7 7 10 15 7 18 -3 3 -9 -2 -12 -12z"/>
<path d="M6593 3315 c0 -8 4 -12 9 -9 5 3 6 10 3 15 -9 13 -12 11 -12 -6z"/>
<path d="M6586 3258 c3 -4 9 -8 15 -8 5 0 9 4 9 8 0 5 -7 9 -15 9 -8 0 -12 -4
-9 -9z"/>
<path d="M6555 3220 c-3 -5 -1 -10 4 -10 6 0 11 5 11 10 0 6 -2 10 -4 10 -3 0
-8 -4 -11 -10z"/>
<path d="M6615 3220 c-3 -5 -1 -10 4 -10 6 0 11 5 11 10 0 6 -2 10 -4 10 -3 0
-8 -4 -11 -10z"/>
<path d="M6553 3165 c0 -8 4 -12 9 -9 5 3 6 10 3 15 -9 13 -12 11 -12 -6z"/>
<path d="M6586 3122 c-3 -5 1 -9 9 -9 8 0 12 4 9 9 -3 4 -7 8 -9 8 -2 0 -6 -4
-9 -8z"/>
<path d="M6550 3090 c-9 -6 -10 -10 -3 -10 6 0 15 5 18 10 8 12 4 12 -15 0z"/>
<path d="M6530 3040 c0 -5 5 -10 10 -10 6 0 10 5 10 10 0 6 -4 10 -10 10 -5 0
-10 -4 -10 -10z"/>
<path d="M6556 3022 c-2 -4 -1 -14 4 -22 7 -11 9 -9 7 8 -1 24 -3 26 -11 14z"/>
<path d="M6517 3000 c-3 -11 0 -23 5 -27 7 -4 8 -1 3 7 -6 10 -4 12 10 6 16
-6 16 -4 4 11 -7 10 -14 19 -15 21 -1 1 -4 -6 -7 -18z"/>
<path d="M6547 2959 c7 -7 15 -10 18 -7 3 3 -2 9 -12 12 -14 6 -15 5 -6 -5z"/>
<path d="M6535 2931 c-3 -5 -2 -12 3 -15 5 -3 9 1 9 9 0 17 -3 19 -12 6z"/>
<path d="M6576 2902 c-3 -5 1 -9 9 -9 8 0 12 4 9 9 -3 4 -7 8 -9 8 -2 0 -6 -4
-9 -8z"/>
<path d="M6531 2887 c-8 -10 -7 -14 2 -14 8 0 14 6 14 14 0 7 -1 13 -2 13 -2
0 -8 -6 -14 -13z"/>
<path d="M6510 2739 c0 -5 5 -7 10 -4 6 3 10 8 10 11 0 2 -4 4 -10 4 -5 0 -10
-5 -10 -11z"/>
<path d="M6460 2726 c0 -2 7 -7 16 -10 8 -3 12 -2 9 4 -6 10 -25 14 -25 6z"/>
<path d="M6530 2720 c0 -5 5 -10 11 -10 5 0 7 5 4 10 -3 6 -8 10 -11 10 -2 0
-4 -4 -4 -10z"/>
<path d="M6475 2690 c-3 -5 -3 -10 1 -10 4 0 0 -6 -11 -13 -14 -11 -15 -16 -5
-22 8 -5 11 -4 6 3 -3 5 -1 12 6 14 6 2 12 12 14 21 3 19 -2 22 -11 7z"/>
<path d="M6430 2640 c0 -5 5 -10 11 -10 5 0 7 5 4 10 -3 6 -8 10 -11 10 -2 0
-4 -4 -4 -10z"/>
<path d="M6451 2612 c-7 -14 -6 -19 4 -19 7 0 11 7 7 15 -4 11 -1 13 8 7 9 -5
11 -4 6 3 -10 16 -14 15 -25 -6z"/>
<path d="M6490 2620 c0 -5 5 -10 11 -10 5 0 7 5 4 10 -3 6 -8 10 -11 10 -2 0
-4 -4 -4 -10z"/>
<path d="M6448 2573 c-10 -2 -18 -9 -18 -14 0 -6 8 -5 20 1 11 6 20 13 20 15
0 3 -1 4 -2 4 -2 -1 -11 -3 -20 -6z"/>
<path d="M6496 2542 c-3 -5 1 -9 9 -9 8 0 12 4 9 9 -3 4 -7 8 -9 8 -2 0 -6 -4
-9 -8z"/>
<path d="M6456 2513 c-6 -14 -5 -15 5 -6 7 7 10 15 7 18 -3 3 -9 -2 -12 -12z"/>
<path d="M6408 2513 c6 -2 9 -10 6 -15 -4 -7 -2 -8 5 -4 13 9 5 26 -12 25 -9
0 -8 -2 1 -6z"/>
<path d="M6379 2483 c-13 -16 -12 -17 4 -4 9 7 17 15 17 17 0 8 -8 3 -21 -13z"/>
<path d="M6433 2471 c0 -11 5 -18 9 -15 4 3 5 11 1 19 -7 21 -12 19 -10 -4z"/>
<path d="M6397 2473 c-11 -11 -8 -20 7 -20 8 0 12 6 9 14 -6 15 -7 15 -16 6z"/>
<path d="M6416 2413 c-6 -14 -5 -15 5 -6 7 7 10 15 7 18 -3 3 -9 -2 -12 -12z"/>
<path d="M585 2380 c-3 -6 1 -7 9 -4 18 7 21 14 7 14 -6 0 -13 -4 -16 -10z"/>
<path d="M6375 2369 c-4 -6 -5 -12 -2 -15 2 -3 7 2 10 11 7 17 1 20 -8 4z"/>
<path d="M6399 2353 c-13 -16 -12 -17 4 -4 16 13 21 21 13 21 -2 0 -10 -8 -17
-17z"/>
<path d="M6440 2340 c-9 -6 -10 -10 -3 -10 6 0 15 5 18 10 8 12 4 12 -15 0z"/>
<path d="M6309 2300 c-28 -30 -28 -35 1 -35 16 -1 26 3 24 7 -3 4 0 8 7 8 7 0
9 3 6 6 -4 4 -13 1 -22 -6 -18 -15 -21 0 -3 18 6 6 10 13 7 15 -2 2 -11 -4
-20 -13z"/>
<path d="M6353 2246 c-2 -19 -1 -19 8 -3 6 9 16 14 22 11 7 -4 8 -3 4 1 -15
17 -33 12 -34 -9z"/>
<path d="M6290 2242 c0 -5 12 -14 28 -21 l27 -13 -22 21 c-24 23 -33 26 -33
13z"/>
<path d="M676 2207 c3 -10 9 -15 12 -12 3 3 0 11 -7 18 -10 9 -11 8 -5 -6z"/>
<path d="M734 2136 c1 -8 5 -18 8 -22 4 -3 5 1 4 10 -1 8 -5 18 -8 22 -4 3 -5
-1 -4 -10z"/>
<path d="M6274 2135 c-4 -8 -10 -12 -15 -9 -5 3 -6 -3 -2 -12 4 -11 8 -13 11
-6 2 7 8 10 13 7 5 -4 6 1 3 10 -5 11 -2 14 10 9 9 -3 16 -4 16 -1 0 13 -31
15 -36 2z"/>
<path d="M6335 2140 c3 -5 8 -10 11 -10 2 0 4 5 4 10 0 6 -5 10 -11 10 -5 0
-7 -4 -4 -10z"/>
<path d="M6225 2109 c-4 -5 -4 -13 -1 -16 3 -4 6 0 6 8 0 11 2 11 10 -1 6 -9
10 -10 10 -3 0 17 -17 25 -25 12z"/>
<path d="M6196 2077 c-4 -16 -11 -25 -17 -21 -6 3 -4 -7 4 -22 8 -16 12 -36
10 -44 -4 -13 -3 -13 6 -1 6 10 6 21 0 33 -6 12 -6 25 1 39 6 11 10 25 7 32
-2 7 -7 -1 -11 -16z"/>
<path d="M6269 2063 c-13 -16 -12 -17 4 -4 16 13 21 21 13 21 -2 0 -10 -8 -17
-17z"/>
<path d="M775 2051 c-3 -5 -2 -12 3 -15 5 -3 9 1 9 9 0 17 -3 19 -12 6z"/>
<path d="M6211 2043 c-1 -27 10 -35 29 -21 12 8 12 9 -2 4 -12 -3 -18 2 -21
17 l-4 22 -2 -22z"/>
<path d="M795 2020 c-3 -5 -1 -10 4 -10 6 0 11 5 11 10 0 6 -2 10 -4 10 -3 0
-8 -4 -11 -10z"/>
<path d="M796 1953 c-6 -14 -5 -15 5 -6 7 7 10 15 7 18 -3 3 -9 -2 -12 -12z"/>
<path d="M6175 1939 c-4 -5 2 -6 12 -2 16 6 17 5 3 -13 -14 -19 -14 -19 8 0
12 11 22 20 22 20 0 7 -41 3 -45 -5z"/>
<path d="M833 1905 c0 -8 4 -12 9 -9 5 3 6 10 3 15 -9 13 -12 11 -12 -6z"/>
<path d="M875 1890 c10 -11 20 -20 23 -20 3 0 -3 9 -13 20 -10 11 -20 20 -23
20 -3 0 3 -9 13 -20z"/>
<path d="M6215 1900 c3 -5 8 -10 11 -10 2 0 4 5 4 10 0 6 -5 10 -11 10 -5 0
-7 -4 -4 -10z"/>
<path d="M6175 1889 c-4 -6 -5 -12 -2 -15 2 -3 7 2 10 11 7 17 1 20 -8 4z"/>
<path d="M6116 1855 c-9 -26 -7 -32 5 -12 6 10 9 21 6 23 -2 3 -7 -2 -11 -11z"/>
<path d="M6146 1838 c3 -5 10 -6 15 -3 13 9 11 12 -6 12 -8 0 -12 -4 -9 -9z"/>
<path d="M6097 1819 c7 -7 15 -10 18 -7 3 3 -2 9 -12 12 -14 6 -15 5 -6 -5z"/>
<path d="M6076 1793 c-6 -14 -5 -15 5 -6 7 7 10 15 7 18 -3 3 -9 -2 -12 -12z"/>
<path d="M940 1796 c0 -2 7 -7 16 -10 8 -3 12 -2 9 4 -6 10 -25 14 -25 6z"/>
<path d="M886 1778 c3 -5 10 -6 15 -3 13 9 11 12 -6 12 -8 0 -12 -4 -9 -9z"/>
<path d="M6094 1778 c-4 -7 -4 -10 1 -6 4 4 15 2 24 -5 14 -11 14 -10 2 6 -16
20 -18 21 -27 5z"/>
<path d="M915 1720 c-3 -5 -1 -10 4 -10 6 0 11 5 11 10 0 6 -2 10 -4 10 -3 0
-8 -4 -11 -10z"/>
<path d="M1030 1680 c0 -5 5 -10 11 -10 5 0 7 5 4 10 -3 6 -8 10 -11 10 -2 0
-4 -4 -4 -10z"/>
<path d="M6035 1680 c-3 -5 -1 -10 4 -10 6 0 11 5 11 10 0 6 -2 10 -4 10 -3 0
-8 -4 -11 -10z"/>
<path d="M6000 1660 c-9 -6 -10 -10 -3 -10 6 0 15 5 18 10 8 12 4 12 -15 0z"/>
<path d="M1060 1639 c0 -5 5 -7 10 -4 6 3 10 8 10 11 0 2 -4 4 -10 4 -5 0 -10
-5 -10 -11z"/>
<path d="M5895 1630 c-4 -11 -10 -18 -15 -15 -9 6 -7 -10 4 -37 4 -9 3 -26 -3
-37 -8 -15 -8 -22 1 -27 7 -4 10 -4 6 1 -11 12 19 63 41 70 11 3 25 13 33 22
12 16 11 15 -12 0 -27 -19 -40 -21 -40 -8 0 5 10 11 22 14 12 4 19 9 16 12 -3
4 -16 1 -28 -5 -20 -11 -21 -10 -15 9 3 12 4 21 1 21 -2 0 -8 -9 -11 -20z m10
-48 c-8 -8 -25 10 -19 20 4 6 9 5 15 -3 4 -7 6 -15 4 -17z"/>
<path d="M6030 1639 c0 -5 5 -7 10 -4 6 3 10 8 10 11 0 2 -4 4 -10 4 -5 0 -10
-5 -10 -11z"/>
<path d="M5999 1638 c-6 -23 -7 -48 -1 -48 4 0 8 11 8 25 0 21 -4 33 -7 23z"/>
<path d="M1010 1625 c0 -7 30 -13 34 -7 3 4 -4 9 -15 9 -10 1 -19 0 -19 -2z"/>
<path d="M1060 1611 c0 -6 4 -13 10 -16 6 -3 7 1 4 9 -7 18 -14 21 -14 7z"/>
<path d="M5844 1565 c-19 -15 -19 -15 0 -8 13 4 17 3 12 -5 -4 -7 -3 -12 2
-12 13 0 23 28 13 34 -4 3 -17 -1 -27 -9z"/>
<path d="M1084 1558 c-3 -4 5 -5 17 -3 30 6 36 14 9 12 -12 -1 -24 -5 -26 -9z"/>
<path d="M5995 1560 c3 -5 8 -10 11 -10 2 0 4 5 4 10 0 6 -5 10 -11 10 -5 0
-7 -4 -4 -10z"/>
<path d="M1120 1546 c0 -2 7 -7 16 -10 8 -3 12 -2 9 4 -6 10 -25 14 -25 6z"/>
<path d="M1161 1524 c0 -11 3 -14 6 -6 3 7 2 16 -1 19 -3 4 -6 -2 -5 -13z"/>
<path d="M1120 1526 c0 -2 8 -10 18 -17 15 -13 16 -12 3 4 -13 16 -21 21 -21
13z"/>
<path d="M5906 1502 c-3 -5 1 -9 9 -9 8 0 12 4 9 9 -3 4 -7 8 -9 8 -2 0 -6 -4
-9 -8z"/>
<path d="M5866 1485 c-11 -8 -15 -15 -9 -15 6 0 16 7 23 15 16 19 11 19 -14 0z"/>
<path d="M1190 1480 c0 -5 5 -10 11 -10 5 0 7 5 4 10 -3 6 -8 10 -11 10 -2 0
-4 -4 -4 -10z"/>
<path d="M1167 1459 c7 -7 15 -10 18 -7 3 3 -2 9 -12 12 -14 6 -15 5 -6 -5z"/>
<path d="M1210 1454 c0 -2 9 -8 20 -14 11 -6 20 -7 20 -2 0 6 -9 12 -20 15
-11 3 -20 3 -20 1z"/>
<path d="M1195 1420 c3 -5 8 -10 11 -10 2 0 4 5 4 10 0 6 -5 10 -11 10 -5 0
-7 -4 -4 -10z"/>
<path d="M5834 1400 c0 -13 4 -16 10 -10 7 7 7 13 0 20 -6 6 -10 3 -10 -10z"/>
<path d="M1263 1364 c9 -11 14 -24 10 -28 -4 -4 1 -4 12 0 11 5 14 9 7 12 -7
2 -9 9 -5 15 3 7 3 9 -2 5 -4 -4 -15 -2 -24 4 -12 10 -12 7 2 -8z"/>
<path d="M5773 1363 c1 -17 4 -19 14 -11 15 12 18 22 4 14 -5 -4 -11 0 -14 6
-3 7 -4 3 -4 -9z"/>
<path d="M1340 1315 c-11 -13 -10 -14 4 -9 9 3 16 10 16 15 0 13 -6 11 -20 -6z"/>
<path d="M5594 1314 c-18 -14 -18 -15 4 -4 12 6 22 13 22 15 0 8 -5 6 -26 -11z"/>
<path d="M5735 1321 c-3 -5 -2 -12 3 -15 5 -3 9 1 9 9 0 17 -3 19 -12 6z"/>
<path d="M5670 1289 c0 -5 5 -7 10 -4 6 3 10 8 10 11 0 2 -4 4 -10 4 -5 0 -10
-5 -10 -11z"/>
<path d="M1401 1274 c0 -11 3 -14 6 -6 3 7 2 16 -1 19 -3 4 -6 -2 -5 -13z"/>
<path d="M1335 1260 c3 -5 8 -10 11 -10 2 0 4 5 4 10 0 6 -5 10 -11 10 -5 0
-7 -4 -4 -10z"/>
<path d="M5653 1254 c-3 -8 -2 -19 3 -24 5 -5 9 1 9 16 0 28 -3 30 -12 8z"/>
<path d="M5626 1223 c-6 -14 -5 -15 5 -6 7 7 10 15 7 18 -3 3 -9 -2 -12 -12z"/>
<path d="M1428 1223 c6 -2 10 -8 7 -13 -3 -4 2 -10 10 -14 8 -3 17 0 21 6 4 6
3 8 -3 5 -6 -4 -13 0 -17 8 -3 8 -11 15 -18 14 -10 0 -10 -2 0 -6z"/>
<path d="M5590 1220 c0 -5 5 -10 11 -10 5 0 7 5 4 10 -3 6 -8 10 -11 10 -2 0
-4 -4 -4 -10z"/>
<path d="M1415 1180 c3 -5 8 -10 11 -10 2 0 4 5 4 10 0 6 -5 10 -11 10 -5 0
-7 -4 -4 -10z"/>
<path d="M1535 1167 c8 -13 12 -27 8 -31 -4 -4 0 -4 9 -1 15 6 14 9 -5 31 -26
30 -32 31 -12 1z"/>
<path d="M5450 1175 c-7 -9 -10 -18 -6 -22 3 -3 6 0 6 8 0 12 2 12 10 -1 5 -8
13 -11 17 -6 4 5 2 11 -5 13 -6 3 -10 9 -6 14 9 15 -2 10 -16 -6z"/>
<path d="M5627 1179 c7 -7 15 -10 18 -7 3 3 -2 9 -12 12 -14 6 -15 5 -6 -5z"/>
<path d="M1500 1159 c0 -5 5 -7 10 -4 6 3 10 8 10 11 0 2 -4 4 -10 4 -5 0 -10
-5 -10 -11z"/>
<path d="M1455 1140 c3 -5 8 -10 11 -10 2 0 4 5 4 10 0 6 -5 10 -11 10 -5 0
-7 -4 -4 -10z"/>
<path d="M5536 1141 c-4 -5 3 -7 14 -4 23 6 26 13 6 13 -8 0 -17 -4 -20 -9z"/>
<path d="M5587 1139 c7 -7 15 -10 18 -7 3 3 -2 9 -12 12 -14 6 -15 5 -6 -5z"/>
<path d="M1500 1131 c0 -6 4 -13 10 -16 6 -3 7 1 4 9 -7 18 -14 21 -14 7z"/>
<path d="M1535 1110 c-3 -6 1 -7 9 -4 18 7 21 14 7 14 -6 0 -13 -4 -16 -10z"/>
<path d="M5445 1094 c-14 -10 -15 -16 -5 -31 10 -15 11 -16 6 -1 -5 17 7 31
32 34 23 4 26 13 4 11 -11 0 -28 -7 -37 -13z"/>
<path d="M1590 1090 c0 -5 5 -10 10 -10 6 0 10 5 10 10 0 6 -4 10 -10 10 -5 0
-10 -4 -10 -10z"/>
<path d="M1633 1073 c11 -12 16 -26 13 -31 -3 -5 1 -9 9 -9 17 0 5 27 -22 48
-17 13 -17 12 0 -8z"/>
<path d="M1530 1059 c0 -5 5 -7 10 -4 6 3 10 8 10 11 0 2 -4 4 -10 4 -5 0 -10
-5 -10 -11z"/>
<path d="M1612 1058 c2 -7 -2 -12 -9 -11 -12 2 -12 -23 0 -32 4 -3 5 -2 2 2
-3 3 2 14 11 24 10 11 12 19 4 24 -6 4 -9 1 -8 -7z"/>
<path d="M5402 1058 c-7 -7 -12 -17 -12 -22 0 -6 5 -3 11 7 10 18 11 18 25 0
14 -17 14 -16 4 5 -13 26 -12 26 -28 10z"/>
<path d="M5515 1049 c-4 -6 -5 -12 -2 -15 2 -3 7 2 10 11 7 17 1 20 -8 4z"/>
<path d="M5313 1014 c0 -15 8 -29 21 -35 21 -10 21 -10 1 6 -14 11 -16 18 -9
23 9 5 8 10 -1 19 -10 9 -12 6 -12 -13z"/>
<path d="M5350 1030 c0 -5 7 -10 15 -10 9 0 12 -6 9 -15 -4 -8 -4 -15 -1 -15
16 0 13 31 -3 40 -14 7 -20 7 -20 0z"/>
<path d="M1660 1016 c0 -2 7 -6 15 -10 8 -3 15 -1 15 4 0 6 -7 10 -15 10 -8 0
-15 -2 -15 -4z"/>
<path d="M1700 1000 c-6 -11 -9 -20 -8 -20 2 0 11 9 21 20 9 11 13 20 7 20 -5
0 -14 -9 -20 -20z"/>
<path d="M1756 995 c-9 -26 -7 -32 5 -12 6 10 9 21 6 23 -2 3 -7 -2 -11 -11z"/>
<path d="M1711 967 c2 -1 12 -9 22 -16 15 -12 17 -12 11 3 -3 9 -13 16 -22 16
-8 0 -13 -1 -11 -3z"/>
<path d="M5270 962 c0 -6 9 -12 20 -15 11 -3 20 -3 20 -1 0 2 -9 8 -20 14 -11
6 -20 7 -20 2z"/>
<path d="M5359 953 c-13 -16 -12 -17 4 -4 16 13 21 21 13 21 -2 0 -10 -8 -17
-17z"/>
<path d="M5390 956 c0 -2 8 -10 18 -17 15 -13 16 -12 3 4 -13 16 -21 21 -21
13z"/>
<path d="M1726 918 c3 -5 10 -6 15 -3 13 9 11 12 -6 12 -8 0 -12 -4 -9 -9z"/>
<path d="M1840 919 c0 -5 5 -7 10 -4 6 3 10 8 10 11 0 2 -4 4 -10 4 -5 0 -10
-5 -10 -11z"/>
<path d="M1860 905 c-7 -14 -10 -28 -7 -32 4 -3 7 2 7 12 0 14 3 15 14 6 10
-9 16 -8 26 4 9 10 9 15 1 15 -6 0 -11 -5 -11 -11 0 -5 -4 -8 -10 -4 -5 3 -7
12 -3 20 9 24 -2 17 -17 -10z"/>
<path d="M5306 918 c3 -5 10 -6 15 -3 13 9 11 12 -6 12 -8 0 -12 -4 -9 -9z"/>
<path d="M1920 890 c-8 -5 -12 -12 -9 -15 4 -3 12 1 19 10 14 17 11 19 -10 5z"/>
<path d="M1755 880 c-3 -5 -1 -10 4 -10 6 0 11 5 11 10 0 6 -2 10 -4 10 -3 0
-8 -4 -11 -10z"/>
<path d="M5315 881 c-3 -5 -2 -12 3 -15 5 -3 9 1 9 9 0 17 -3 19 -12 6z"/>
<path d="M5188 868 c-7 -17 15 -19 29 -3 4 4 3 5 -4 2 -6 -4 -13 -2 -15 5 -3
8 -6 6 -10 -4z"/>
<path d="M1862 861 c-9 -5 -4 -8 16 -7 17 1 28 4 25 9 -6 9 -25 9 -41 -2z"/>
<path d="M1969 853 c13 -27 14 -36 2 -28 -5 3 -12 1 -15 -4 -4 -5 2 -8 11 -7
23 4 26 18 8 41 -16 19 -16 19 -6 -2z"/>
<path d="M5117 853 c-10 -10 -8 -23 4 -23 5 0 8 4 5 9 -4 5 0 12 6 14 7 3 8 6
2 6 -6 1 -14 -2 -17 -6z"/>
<path d="M1876 842 c-3 -5 1 -9 9 -9 8 0 12 4 9 9 -3 4 -7 8 -9 8 -2 0 -6 -4
-9 -8z"/>
<path d="M1910 836 c0 -2 7 -9 15 -16 13 -11 14 -10 9 4 -5 14 -24 23 -24 12z"/>
<path d="M2027 824 c2 -6 0 -15 -6 -19 -6 -3 -11 -11 -11 -17 0 -6 9 1 20 15
24 30 24 34 6 34 -8 0 -12 -6 -9 -13z"/>
<path d="M1991 807 c-13 -21 -12 -21 5 -5 10 10 16 20 13 22 -3 3 -11 -5 -18
-17z"/>
<path d="M2048 805 c-24 -32 -23 -43 2 -14 10 13 19 19 20 14 0 -6 -5 -16 -12
-23 -9 -9 -9 -12 -1 -12 7 0 15 10 19 22 l6 21 12 -22 c7 -12 15 -19 19 -15 7
7 -13 30 -27 31 -5 1 -12 6 -15 11 -3 5 -14 -1 -23 -13z"/>
<path d="M5020 820 c0 -5 5 -10 11 -10 5 0 7 5 4 10 -3 6 -8 10 -11 10 -2 0
-4 -4 -4 -10z"/>
<path d="M5040 796 c0 -2 7 -7 16 -10 8 -3 12 -2 9 4 -6 10 -25 14 -25 6z"/>
<path d="M1967 779 c7 -7 15 -10 18 -7 3 3 -2 9 -12 12 -14 6 -15 5 -6 -5z"/>
<path d="M2110 762 c-23 -22 -23 -24 -3 -13 13 6 24 7 28 2 3 -5 -3 -12 -12
-14 -15 -4 -15 -5 -2 -6 9 0 22 6 29 15 11 12 11 17 -1 28 -12 10 -18 8 -39
-12z m40 -2 c0 -5 -2 -10 -4 -10 -3 0 -8 5 -11 10 -3 6 -1 10 4 10 6 0 11 -4
11 -10z"/>
<path d="M2076 763 c-6 -14 -5 -15 5 -6 7 7 10 15 7 18 -3 3 -9 -2 -12 -12z"/>
<path d="M5034 760 c0 -13 4 -16 10 -10 7 7 7 13 0 20 -6 6 -10 3 -10 -10z"/>
<path d="M4960 750 c6 -11 12 -20 14 -20 2 0 2 9 -1 20 -3 11 -9 20 -15 20 -5
0 -4 -9 2 -20z"/>
<path d="M5066 758 c3 -5 10 -6 15 -3 13 9 11 12 -6 12 -8 0 -12 -4 -9 -9z"/>
<path d="M4890 751 c0 -6 5 -13 10 -16 6 -4 7 -11 4 -17 -4 -7 -2 -8 4 -4 9 5
9 13 2 27 -11 20 -20 25 -20 10z"/>
<path d="M2047 739 c7 -7 15 -10 18 -7 3 3 -2 9 -12 12 -14 6 -15 5 -6 -5z"/>
<path d="M2158 723 c7 -3 16 -2 19 1 4 3 -2 6 -13 5 -11 0 -14 -3 -6 -6z"/>
<path d="M4930 722 c0 -4 10 -9 22 -9 18 -2 20 0 8 7 -18 12 -30 13 -30 2z"/>
<path d="M2050 699 c0 -5 5 -7 10 -4 6 3 10 8 10 11 0 2 -4 4 -10 4 -5 0 -10
-5 -10 -11z"/>
<path d="M2118 703 c7 -3 16 -2 19 1 4 3 -2 6 -13 5 -11 0 -14 -3 -6 -6z"/>
<path d="M4873 703 c4 -3 -1 -16 -10 -27 -14 -15 -14 -18 -2 -8 9 6 18 10 20
7 3 -2 5 5 6 15 1 11 -3 20 -9 20 -6 0 -8 -3 -5 -7z"/>
<path d="M2323 689 c-6 -6 -9 -18 -6 -26 4 -11 8 -10 19 4 22 30 12 47 -13 22z"/>
<path d="M4830 691 c0 -7 -5 -9 -12 -5 -7 5 -8 3 -3 -5 5 -9 10 -10 18 -2 6 6
8 14 4 18 -4 3 -7 1 -7 -6z"/>
<path d="M4933 685 c0 -8 4 -12 9 -9 5 3 6 10 3 15 -9 13 -12 11 -12 -6z"/>
<path d="M2170 680 c0 -4 7 -7 15 -6 23 3 26 12 5 13 -11 1 -20 -2 -20 -7z"/>
<path d="M2200 655 c-7 -8 -17 -12 -23 -8 -6 4 -7 1 -3 -6 6 -9 13 -8 27 5 10
9 19 19 19 21 0 7 -8 2 -20 -12z"/>
<path d="M2280 655 c-7 -8 -16 -13 -20 -10 -5 3 -11 1 -14 -4 -8 -13 22 -7 36
7 8 8 15 7 25 -6 13 -15 13 -15 3 6 -13 26 -14 26 -30 7z"/>
<path d="M4716 654 c-11 -8 -15 -14 -10 -14 6 0 16 6 23 13 12 10 13 8 7 -8
-6 -16 -5 -18 5 -7 20 19 -2 33 -25 16z"/>
<path d="M4753 632 c-8 -14 -8 -19 1 -19 7 0 13 9 13 19 1 10 1 18 0 18 -1 0
-7 -8 -14 -18z"/>
<path d="M4895 641 c-3 -5 -2 -12 3 -15 5 -3 9 1 9 9 0 17 -3 19 -12 6z"/>
<path d="M2334 609 c1 -7 10 -13 19 -15 9 -1 15 2 11 7 -3 5 -9 7 -14 4 -4 -3
-11 0 -13 5 -3 6 -4 5 -3 -1z"/>
<path d="M2422 600 c0 -14 2 -19 5 -12 2 6 2 18 0 25 -3 6 -5 1 -5 -13z"/>
<path d="M2446 612 c-2 -4 0 -14 6 -22 8 -12 9 -12 5 2 -3 9 -1 19 6 22 9 3 9
5 0 5 -6 1 -14 -3 -17 -7z"/>
<path d="M4714 609 c-3 -6 -2 -15 3 -20 5 -5 9 -1 9 11 0 23 -2 24 -12 9z"/>
<path d="M4630 590 c-9 -6 -10 -10 -3 -10 6 0 15 5 18 10 8 12 4 12 -15 0z"/>
<path d="M2275 579 c-3 -4 2 -6 10 -5 21 3 28 13 10 13 -9 0 -18 -4 -20 -8z"/>
<path d="M2490 565 c0 -8 29 -12 39 -5 9 5 4 8 -13 8 -14 0 -26 -2 -26 -3z"/>
<path d="M4614 555 c3 -23 12 -26 13 -5 1 11 -2 20 -7 20 -4 0 -7 -7 -6 -15z"/>
<path d="M2780 543 l21 -15 -22 -24 c-17 -18 -25 -21 -31 -12 -5 9 -8 10 -8 1
0 -12 27 -43 37 -43 3 0 0 6 -6 14 -8 10 -8 16 3 25 10 8 16 9 21 1 3 -5 11
-10 18 -10 6 0 3 6 -8 13 -13 10 -15 16 -6 21 9 6 9 11 -1 24 -11 13 -10 15 5
9 10 -4 16 -3 13 2 -3 5 -17 9 -31 9 -26 0 -26 -1 -5 -15z"/>
<path d="M2573 535 c-3 -9 -3 -18 -1 -21 3 -3 8 4 11 16 6 23 -1 27 -10 5z"/>
<path d="M2615 540 c-3 -5 -2 -10 4 -10 5 0 13 5 16 10 3 6 2 10 -4 10 -5 0
-13 -4 -16 -10z"/>
<path d="M2664 535 c11 -8 15 -19 11 -27 -6 -10 -5 -10 5 -1 11 10 11 15 0 28
-7 8 -18 15 -24 15 -6 0 -3 -7 8 -15z"/>
<path d="M2822 525 c-13 -28 8 -41 38 -25 24 13 30 13 30 0 0 -5 -7 -10 -15
-10 -8 0 -15 -5 -15 -10 0 -7 6 -7 18 -1 13 7 23 6 32 -2 10 -9 11 -9 6 1 -4
6 -2 12 3 12 6 0 11 -6 11 -14 0 -8 5 -18 11 -22 8 -4 9 1 4 16 -5 15 -4 20 4
16 6 -4 9 -2 5 7 -3 8 1 14 10 14 9 0 14 -8 13 -21 -1 -12 4 -21 13 -22 8 0 9
1 3 3 -7 3 -13 8 -13 13 0 13 41 -1 47 -16 3 -8 10 -11 15 -8 6 4 8 -1 4 -14
-4 -11 -2 -23 3 -27 7 -4 8 1 4 11 -5 12 -3 15 6 9 10 -6 11 -3 2 13 -6 11
-16 22 -23 24 -8 3 -6 7 5 11 9 3 17 2 17 -4 0 -6 4 -7 10 -4 5 3 7 0 4 -8 -3
-8 0 -18 6 -22 8 -5 8 -11 1 -19 -8 -9 -7 -13 3 -13 9 0 12 8 9 21 -3 12 -5
28 -5 36 0 8 -10 20 -24 27 -13 6 -22 8 -19 4 2 -5 -9 -8 -25 -9 -17 0 -30 4
-30 9 0 6 4 8 9 4 5 -3 12 -1 15 4 4 5 -2 8 -11 6 -10 -1 -22 0 -28 4 -13 7
-76 9 -69 2 3 -3 11 -6 17 -6 5 0 12 -5 14 -11 6 -17 -30 -12 -43 5 -6 8 -16
11 -23 7 -8 -5 -11 -2 -9 9 5 27 -28 26 -40 0z m31 -5 c-3 -11 -9 -20 -14 -20
-14 0 -11 28 4 33 6 3 13 6 14 6 0 1 -1 -8 -4 -19z"/>
<path d="M4493 538 c1 -7 -4 -12 -11 -10 -8 1 -11 -2 -7 -8 5 -8 11 -8 21 1 7
6 11 15 8 20 -8 13 -14 11 -11 -3z"/>
<path d="M4536 527 c3 -10 9 -15 12 -12 3 3 0 11 -7 18 -10 9 -11 8 -5 -6z"/>
<path d="M2496 522 c-3 -5 1 -9 9 -9 8 0 12 4 9 9 -3 4 -7 8 -9 8 -2 0 -6 -4
-9 -8z"/>
<path d="M2639 528 c-6 -22 -5 -39 3 -45 6 -3 8 -1 4 5 -3 5 0 13 6 15 10 4
10 6 0 6 -7 1 -10 6 -7 11 3 6 4 10 1 10 -3 0 -6 -1 -7 -2z"/>
<path d="M4420 515 c-11 -13 -10 -14 5 -9 14 6 16 4 10 -6 -5 -8 -4 -11 3 -6
6 4 9 13 5 21 -7 19 -8 19 -23 0z"/>
<path d="M4355 500 c-3 -5 -1 -10 4 -10 6 0 11 5 11 10 0 6 -2 10 -4 10 -3 0
-8 -4 -11 -10z"/>
<path d="M3105 474 c0 -12 4 -26 8 -30 4 -5 5 0 2 11 -6 19 -6 19 12 0 19 -22
59 -30 69 -14 3 6 -5 8 -21 5 -17 -3 -25 -1 -22 7 2 6 18 12 35 12 25 1 31 -3
29 -20 -2 -15 4 -20 23 -20 15 0 24 5 23 13 -3 14 13 16 20 2 3 -6 4 -5 3 2
-2 7 4 22 13 33 14 17 14 18 0 7 -9 -6 -19 -9 -23 -5 -12 12 -40 12 -48 0 -6
-9 -8 -8 -8 3 0 13 -1 13 -10 0 -8 -13 -11 -12 -25 5 -15 20 -15 20 -8 0 l6
-20 -24 20 c-13 11 -18 13 -11 4 6 -9 9 -19 5 -22 -9 -9 -23 -9 -22 1 3 18 -2
29 -14 29 -7 0 -13 -10 -12 -23z m172 -9 c4 -4 2 -5 -4 -1 -12 6 -18 -5 -14
-26 0 -5 -8 -8 -19 -8 -23 0 -24 4 -10 30 10 18 33 21 47 5z"/>
<path d="M2840 471 c0 -6 4 -13 10 -16 6 -3 7 1 4 9 -7 18 -14 21 -14 7z"/>
<path d="M2880 459 c-13 -9 -13 -10 0 -6 8 2 20 -5 27 -17 7 -12 12 -15 13 -7
0 11 3 11 18 0 15 -13 16 -12 3 4 -8 9 -16 15 -19 12 -3 -2 -10 2 -16 10 -8
11 -15 12 -26 4z"/>
<path d="M3390 460 c0 -5 5 -10 10 -10 6 0 10 5 10 10 0 6 -4 10 -10 10 -5 0
-10 -4 -10 -10z"/>
<path d="M4211 463 c3 -20 -2 -27 -11 -13 -6 9 -10 10 -10 3 0 -19 17 -24 29
-9 9 10 9 16 1 21 -6 4 -10 3 -9 -2z"/>
<path d="M4280 455 c-7 -9 -11 -17 -9 -20 3 -2 10 5 17 15 14 24 10 26 -8 5z"/>
<path d="M4347 459 c7 -7 15 -10 18 -7 3 3 -2 9 -12 12 -14 6 -15 5 -6 -5z"/>
<path d="M4060 454 c0 -5 6 -18 13 -29 12 -15 15 -16 22 -4 5 8 4 10 0 6 -5
-4 -15 3 -22 15 -7 13 -12 18 -13 12z"/>
<path d="M4157 447 c-3 -8 1 -14 8 -14 7 0 11 6 8 14 -3 7 -6 13 -8 13 -2 0
-5 -6 -8 -13z"/>
<path d="M2816 438 c3 -5 10 -6 15 -3 13 9 11 12 -6 12 -8 0 -12 -4 -9 -9z"/>
<path d="M2980 438 c0 -11 12 -10 30 2 12 7 10 9 -8 7 -12 0 -22 -5 -22 -9z"/>
<path d="M4040 431 c0 -6 4 -13 10 -16 6 -3 7 1 4 9 -7 18 -14 21 -14 7z"/>
<path d="M3114 400 c0 -16 2 -28 4 -25 9 8 11 55 3 55 -4 0 -7 -13 -7 -30z"/>
<path d="M4019 428 c-7 -25 -4 -34 15 -35 19 -2 19 -1 3 8 -9 6 -15 14 -12 20
4 5 4 9 1 9 -3 0 -6 -1 -7 -2z"/>
<path d="M3181 417 c2 -1 11 -8 21 -15 12 -10 18 -10 24 -1 4 8 3 9 -4 5 -7
-4 -12 -2 -12 3 0 6 -7 11 -17 11 -9 0 -14 -1 -12 -3z"/>
<path d="M3270 411 c0 -10 19 -25 25 -20 1 2 -3 10 -11 17 -8 7 -14 8 -14 3z"/>
<path d="M3396 407 c-16 -12 -16 -13 3 -13 11 0 18 3 15 7 -2 4 2 10 8 12 7 3
8 6 2 6 -5 1 -18 -5 -28 -12z"/>
<path d="M3450 413 c5 -2 8 -9 4 -14 -3 -5 0 -9 6 -9 15 0 7 23 -8 26 -7 1 -8
0 -2 -3z"/>
<path d="M3752 404 c-7 -8 -8 -14 -3 -14 10 0 25 19 20 25 -2 1 -10 -3 -17
-11z"/>
<path d="M2946 398 c3 -5 10 -6 15 -3 13 9 11 12 -6 12 -8 0 -12 -4 -9 -9z"/>
<path d="M3016 398 c3 -5 10 -6 15 -3 13 9 11 12 -6 12 -8 0 -12 -4 -9 -9z"/>
<path d="M3140 400 c0 -5 7 -7 15 -4 8 4 15 8 15 10 0 2 -7 4 -15 4 -8 0 -15
-4 -15 -10z"/>
<path d="M3241 396 c-9 -11 -9 -16 1 -22 7 -4 10 -4 6 1 -4 4 -3 14 3 22 6 7
9 13 6 13 -2 0 -10 -6 -16 -14z"/>
<path d="M3590 400 c0 -5 7 -7 15 -4 8 4 15 8 15 10 0 2 -7 4 -15 4 -8 0 -15
-4 -15 -10z"/>
<path d="M3787 399 c7 -9 10 -19 6 -22 -3 -4 -1 -7 5 -7 17 0 15 16 -5 31 -16
12 -17 12 -6 -2z"/>
<path d="M3953 395 c0 -8 4 -12 9 -9 5 3 6 10 3 15 -9 13 -12 11 -12 -6z"/>
<path d="M3348 393 c6 -2 10 -8 8 -12 -3 -4 1 -8 8 -8 8 0 12 6 9 14 -3 7 -13
13 -22 12 -10 0 -11 -2 -3 -6z"/>
<path d="M3427 387 c-3 -8 1 -14 8 -14 7 0 11 6 8 14 -3 7 -6 13 -8 13 -2 0
-5 -6 -8 -13z"/>
<path d="M3075 380 c3 -5 8 -10 11 -10 2 0 4 5 4 10 0 6 -5 10 -11 10 -5 0 -7
-4 -4 -10z"/>
<path d="M3536 381 c-3 -5 0 -14 8 -20 10 -9 15 -8 19 3 4 11 1 13 -10 9 -11
-4 -14 -2 -9 5 4 7 5 12 2 12 -3 0 -7 -4 -10 -9z"/>
<path d="M3920 380 c-9 -6 -10 -10 -3 -10 6 0 15 5 18 10 8 12 4 12 -15 0z"/>
<path d="M3307 363 c-3 -5 6 -9 20 -10 19 -1 22 1 12 8 -17 11 -26 11 -32 2z"/>
<path d="M3706 362 c-2 -4 4 -8 14 -8 10 0 16 4 14 8 -3 4 -9 8 -14 8 -5 0
-11 -4 -14 -8z"/>
<path d="M3236 338 c3 -4 11 -5 19 -1 21 7 19 12 -4 10 -11 0 -18 -5 -15 -9z"/>
</g>
</svg>
